{
	"asset":{
		"generator":"Khronos glTF Blender I/O v4.1.63",
		"version":"2.0"
	},
	"scene":0,
	"scenes":[
		{
			"name":"Scene",
			"nodes":[
				0,
				1,
				2,
				3,
				4,
				5,
				6,
				7,
				8,
				9,
				10
			]
		}
	],
	"nodes":[
		{
			"mesh":0,
			"name":"Globe",
			"rotation":[
				0,
				-0.43014252185821533,
				0,
				0.9027609825134277
			],
			"scale":[
				2.5034871101379395,
				2.5034873485565186,
				2.5034871101379395
			],
			"translation":[
				0.0056340694427490234,
				0,
				-0.811663031578064
			]
		},
		{
			"mesh":1,
			"name":"Plane",
			"rotation":[
				0.6983716487884521,
				-0.11080195754766464,
				0.11080195754766464,
				0.6983715891838074
			],
			"scale":[
				0.28427353501319885,
				1.2374837398529053,
				1.0483359098434448
			],
			"translation":[
				-2.2964274883270264,
				0.20692527294158936,
				1.2734421491622925
			]
		},
		{
			"mesh":2,
			"name":"Sphere",
			"rotation":[
				0.01146418135613203,
				0.9738190174102783,
				0.08371475338935852,
				0.211037740111351
			],
			"scale":[
				0.4759209156036377,
				0.605294942855835,
				0.47592079639434814
			],
			"translation":[
				-0.7375941276550293,
				0.7999589443206787,
				1.9636207818984985
			]
		},
		{
			"mesh":3,
			"name":"Sphere.001",
			"scale":[
				0.5141624212265015,
				0.6539320349693298,
				0.5141624212265015
			],
			"translation":[
				7.075760841369629,
				0.38082239031791687,
				1.4322333335876465
			]
		},
		{
			"mesh":4,
			"name":"Cube.001",
			"scale":[
				0.2819816470146179,
				0.2932361960411072,
				0.4147816300392151
			],
			"translation":[
				7.082243919372559,
				0.4830308258533478,
				1.4335530996322632
			]
		},
		{
			"mesh":5,
			"name":"Plane.001",
			"rotation":[
				-0.6830675601959229,
				0.18280763924121857,
				0.18280762434005737,
				0.6830676198005676
			],
			"scale":[
				-0.28427353501319885,
				-1.2374837398529053,
				-1.0483359098434448
			],
			"translation":[
				2.243882894515991,
				0.20692527294158936,
				1.0616260766983032
			]
		},
		{
			"mesh":6,
			"name":"Sphere.002",
			"rotation":[
				0.26268690824508667,
				0.1503196358680725,
				-0.014032943174242973,
				0.9529966711997986
			],
			"scale":[
				0.4759209156036377,
				0.605294942855835,
				0.47592079639434814
			],
			"translation":[
				0.7401413917541504,
				0.7999589443206787,
				1.8632344007492065
			]
		},
		{
			"name":"Text",
			"rotation":[
				0.7280636429786682,
				0,
				0,
				0.6855096220970154
			],
			"scale":[
				0.678608775138855,
				0.6784963607788086,
				0.8815115690231323
			],
			"translation":[
				-2.145981550216675,
				-1.1058346033096313,
				1.3785885572433472
			]
		},
		{
			"name":"Text.001",
			"rotation":[
				0.7560410499572754,
				0.005355019122362137,
				0.004635707009583712,
				0.6544859409332275
			],
			"scale":[
				0.6492927670478821,
				0.7542712688446045,
				1.3654389381408691
			],
			"translation":[
				-1.5162720680236816,
				-2.2295517921447754,
				1.9060066938400269
			]
		},
		{
			"name":"BezierCurve",
			"scale":[
				0.9316064715385437,
				0.9316064715385437,
				0.9316064715385437
			],
			"translation":[
				-4.246942520141602,
				-0.7525895237922668,
				2.199345350265503
			]
		},
		{
			"name":"BezierCurve.001",
			"rotation":[
				0,
				0,
				0.00708279712125659,
				0.9999749064445496
			],
			"translation":[
				-3.629856586456299,
				-1.7462091445922852,
				2.81201171875
			]
		}
	],
	"materials":[
		{
			"doubleSided":true,
			"name":"water",
			"pbrMetallicRoughness":{}
		},
		{
			"doubleSided":true,
			"name":"earth",
			"pbrMetallicRoughness":{}
		},
		{
			"doubleSided":true,
			"name":"Hand",
			"pbrMetallicRoughness":{
				"metallicFactor":0,
				"roughnessFactor":0.4000000059604645
			}
		}
	],
	"meshes":[
		{
			"name":"Sphere.004",
			"primitives":[
				{
					"attributes":{
						"POSITION":0,
						"NORMAL":1,
						"TEXCOORD_0":2
					},
					"indices":3,
					"material":0
				},
				{
					"attributes":{
						"POSITION":4,
						"NORMAL":5,
						"TEXCOORD_0":6
					},
					"indices":7,
					"material":1
				}
			]
		},
		{
			"name":"Plane",
			"primitives":[
				{
					"attributes":{
						"POSITION":8,
						"NORMAL":9,
						"TEXCOORD_0":10
					},
					"indices":11,
					"material":2
				}
			]
		},
		{
			"name":"Sphere",
			"primitives":[
				{
					"attributes":{
						"POSITION":12,
						"NORMAL":13,
						"TEXCOORD_0":14
					},
					"indices":15,
					"material":2
				}
			]
		},
		{
			"name":"Sphere.001",
			"primitives":[
				{
					"attributes":{
						"POSITION":16,
						"NORMAL":17,
						"TEXCOORD_0":18
					},
					"indices":19
				}
			]
		},
		{
			"name":"Cube.001",
			"primitives":[
				{
					"attributes":{
						"POSITION":20,
						"NORMAL":21,
						"TEXCOORD_0":22
					},
					"indices":23
				}
			]
		},
		{
			"name":"Plane.002",
			"primitives":[
				{
					"attributes":{
						"POSITION":24,
						"NORMAL":25,
						"TEXCOORD_0":26
					},
					"indices":27,
					"material":2
				}
			]
		},
		{
			"name":"Sphere.003",
			"primitives":[
				{
					"attributes":{
						"POSITION":28,
						"NORMAL":29,
						"TEXCOORD_0":30
					},
					"indices":31,
					"material":2
				}
			]
		}
	],
	"accessors":[
		{
			"bufferView":0,
			"componentType":5126,
			"count":441,
			"max":[
				0.964901328086853,
				0.9753069281578064,
				0.9621639251708984
			],
			"min":[
				-0.9646192789077759,
				-0.9757384657859802,
				-0.9675606489181519
			],
			"type":"VEC3"
		},
		{
			"bufferView":1,
			"componentType":5126,
			"count":441,
			"type":"VEC3"
		},
		{
			"bufferView":2,
			"componentType":5126,
			"count":441,
			"type":"VEC2"
		},
		{
			"bufferView":3,
			"componentType":5123,
			"count":2394,
			"type":"SCALAR"
		},
		{
			"bufferView":4,
			"componentType":5126,
			"count":5575,
			"max":[
				0.9841111898422241,
				1.0133217573165894,
				0.9926793575286865
			],
			"min":[
				-0.9578160047531128,
				-0.9993601441383362,
				-1.001206398010254
			],
			"type":"VEC3"
		},
		{
			"bufferView":5,
			"componentType":5126,
			"count":5575,
			"type":"VEC3"
		},
		{
			"bufferView":6,
			"componentType":5126,
			"count":5575,
			"type":"VEC2"
		},
		{
			"bufferView":7,
			"componentType":5123,
			"count":14892,
			"type":"SCALAR"
		},
		{
			"bufferView":8,
			"componentType":5126,
			"count":604,
			"max":[
				10.454739570617676,
				0.23330825567245483,
				2.1662278175354004
			],
			"min":[
				-0.8395791053771973,
				-0.6134790182113647,
				-1.7068787813186646
			],
			"type":"VEC3"
		},
		{
			"bufferView":9,
			"componentType":5126,
			"count":604,
			"type":"VEC3"
		},
		{
			"bufferView":10,
			"componentType":5126,
			"count":604,
			"type":"VEC2"
		},
		{
			"bufferView":11,
			"componentType":5123,
			"count":3252,
			"type":"SCALAR"
		},
		{
			"bufferView":12,
			"componentType":5126,
			"count":659,
			"max":[
				1.7067633867263794,
				1.6233102083206177,
				1.0053125619888306
			],
			"min":[
				-1.005312442779541,
				-1.1697205305099487,
				-1.0053125619888306
			],
			"type":"VEC3"
		},
		{
			"bufferView":13,
			"componentType":5126,
			"count":659,
			"type":"VEC3"
		},
		{
			"bufferView":14,
			"componentType":5126,
			"count":659,
			"type":"VEC2"
		},
		{
			"bufferView":15,
			"componentType":5123,
			"count":3198,
			"type":"SCALAR"
		},
		{
			"bufferView":16,
			"componentType":5126,
			"count":378,
			"max":[
				1.7067633867263794,
				0.5830451846122742,
				1.0053125619888306
			],
			"min":[
				-1.005312442779541,
				-1.1697205305099487,
				-1.0053125619888306
			],
			"type":"VEC3"
		},
		{
			"bufferView":17,
			"componentType":5126,
			"count":378,
			"type":"VEC3"
		},
		{
			"bufferView":18,
			"componentType":5126,
			"count":378,
			"type":"VEC2"
		},
		{
			"bufferView":19,
			"componentType":5123,
			"count":2172,
			"type":"SCALAR"
		},
		{
			"bufferView":20,
			"componentType":5126,
			"count":101,
			"max":[
				1.720872163772583,
				3.63258695602417,
				1.2454111576080322
			],
			"min":[
				-1.6793746948242188,
				-0.9999998807907104,
				-1.2454111576080322
			],
			"type":"VEC3"
		},
		{
			"bufferView":21,
			"componentType":5126,
			"count":101,
			"type":"VEC3"
		},
		{
			"bufferView":22,
			"componentType":5126,
			"count":101,
			"type":"VEC2"
		},
		{
			"bufferView":23,
			"componentType":5123,
			"count":396,
			"type":"SCALAR"
		},
		{
			"bufferView":24,
			"componentType":5126,
			"count":602,
			"max":[
				13.487475395202637,
				0.2150976061820984,
				2.703756332397461
			],
			"min":[
				-0.8395795822143555,
				-1.1565238237380981,
				-1.707082986831665
			],
			"type":"VEC3"
		},
		{
			"bufferView":25,
			"componentType":5126,
			"count":602,
			"type":"VEC3"
		},
		{
			"bufferView":26,
			"componentType":5126,
			"count":602,
			"type":"VEC2"
		},
		{
			"bufferView":27,
			"componentType":5123,
			"count":3210,
			"type":"SCALAR"
		},
		{
			"bufferView":28,
			"componentType":5126,
			"count":671,
			"max":[
				1.7067633867263794,
				1.6233102083206177,
				1.0053125619888306
			],
			"min":[
				-1.005312442779541,
				-1.1697205305099487,
				-1.0053125619888306
			],
			"type":"VEC3"
		},
		{
			"bufferView":29,
			"componentType":5126,
			"count":671,
			"type":"VEC3"
		},
		{
			"bufferView":30,
			"componentType":5126,
			"count":671,
			"type":"VEC2"
		},
		{
			"bufferView":31,
			"componentType":5123,
			"count":3264,
			"type":"SCALAR"
		}
	],
	"bufferViews":[
		{
			"buffer":0,
			"byteLength":5292,
			"byteOffset":0,
			"target":34962
		},
		{
			"buffer":0,
			"byteLength":5292,
			"byteOffset":5292,
			"target":34962
		},
		{
			"buffer":0,
			"byteLength":3528,
			"byteOffset":10584,
			"target":34962
		},
		{
			"buffer":0,
			"byteLength":4788,
			"byteOffset":14112,
			"target":34963
		},
		{
			"buffer":0,
			"byteLength":66900,
			"byteOffset":18900,
			"target":34962
		},
		{
			"buffer":0,
			"byteLength":66900,
			"byteOffset":85800,
			"target":34962
		},
		{
			"buffer":0,
			"byteLength":44600,
			"byteOffset":152700,
			"target":34962
		},
		{
			"buffer":0,
			"byteLength":29784,
			"byteOffset":197300,
			"target":34963
		},
		{
			"buffer":0,
			"byteLength":7248,
			"byteOffset":227084,
			"target":34962
		},
		{
			"buffer":0,
			"byteLength":7248,
			"byteOffset":234332,
			"target":34962
		},
		{
			"buffer":0,
			"byteLength":4832,
			"byteOffset":241580,
			"target":34962
		},
		{
			"buffer":0,
			"byteLength":6504,
			"byteOffset":246412,
			"target":34963
		},
		{
			"buffer":0,
			"byteLength":7908,
			"byteOffset":252916,
			"target":34962
		},
		{
			"buffer":0,
			"byteLength":7908,
			"byteOffset":260824,
			"target":34962
		},
		{
			"buffer":0,
			"byteLength":5272,
			"byteOffset":268732,
			"target":34962
		},
		{
			"buffer":0,
			"byteLength":6396,
			"byteOffset":274004,
			"target":34963
		},
		{
			"buffer":0,
			"byteLength":4536,
			"byteOffset":280400,
			"target":34962
		},
		{
			"buffer":0,
			"byteLength":4536,
			"byteOffset":284936,
			"target":34962
		},
		{
			"buffer":0,
			"byteLength":3024,
			"byteOffset":289472,
			"target":34962
		},
		{
			"buffer":0,
			"byteLength":4344,
			"byteOffset":292496,
			"target":34963
		},
		{
			"buffer":0,
			"byteLength":1212,
			"byteOffset":296840,
			"target":34962
		},
		{
			"buffer":0,
			"byteLength":1212,
			"byteOffset":298052,
			"target":34962
		},
		{
			"buffer":0,
			"byteLength":808,
			"byteOffset":299264,
			"target":34962
		},
		{
			"buffer":0,
			"byteLength":792,
			"byteOffset":300072,
			"target":34963
		},
		{
			"buffer":0,
			"byteLength":7224,
			"byteOffset":300864,
			"target":34962
		},
		{
			"buffer":0,
			"byteLength":7224,
			"byteOffset":308088,
			"target":34962
		},
		{
			"buffer":0,
			"byteLength":4816,
			"byteOffset":315312,
			"target":34962
		},
		{
			"buffer":0,
			"byteLength":6420,
			"byteOffset":320128,
			"target":34963
		},
		{
			"buffer":0,
			"byteLength":8052,
			"byteOffset":326548,
			"target":34962
		},
		{
			"buffer":0,
			"byteLength":8052,
			"byteOffset":334600,
			"target":34962
		},
		{
			"buffer":0,
			"byteLength":5368,
			"byteOffset":342652,
			"target":34962
		},
		{
			"buffer":0,
			"byteLength":6528,
			"byteOffset":348020,
			"target":34963
		}
	],
	"buffers":[
		{
			"byteLength":354548,
			"uri":"Hand%20Globe.bin"
		}
	]
}
